<svg id="Layer_1" data-name="Layer 1" xmlns="http://www.w3.org/2000/svg" xmlns:xlink="http://www.w3.org/1999/xlink"
     viewBox="0 0 783.95 839.08">
    <defs>
        <style>
            .cls-1{fill:url(#linear-gradient);}.cls-2{fill:url(#linear-gradient-2);}.cls-3{fill:url(#linear-gradient-3);}.cls-4{fill:url(#linear-gradient-4);}.cls-5{fill:url(#linear-gradient-5);}.cls-6{fill:url(#linear-gradient-6);}.cls-7{fill:url(#linear-gradient-7);}.cls-8{fill:url(#linear-gradient-8);}.cls-9{fill:url(#linear-gradient-9);}.cls-10{fill:url(#linear-gradient-10);}.cls-11{fill:url(#linear-gradient-11);}
        </style>
        <linearGradient id="linear-gradient" x1="391.91" y1="597.99" x2="391.91" y2="132.95"
                        gradientUnits="userSpaceOnUse">
            <stop offset="0" stop-color="#99afeb"/>
            <stop offset="1" stop-color="#2852c8"/>
        </linearGradient>
        <linearGradient id="linear-gradient-2" x1="221.64" y1="386.29" x2="562.27" y2="386.29"
                        gradientUnits="userSpaceOnUse">
            <stop offset="0" stop-color="#2852c8"/>
            <stop offset="1" stop-color="#99afeb"/>
        </linearGradient>
        <linearGradient id="linear-gradient-3" x1="391.96" y1="839.08" x2="391.96" y2="481.82"
                        xlink:href="#linear-gradient-2"/>
        <linearGradient id="linear-gradient-4" x1="52.21" y1="631.09" x2="52.21" y2="167.18"
                        xlink:href="#linear-gradient"/>
        <linearGradient id="linear-gradient-5" x1="731.77" y1="631.09" x2="731.77" y2="167.18"
                        xlink:href="#linear-gradient-2"/>
        <linearGradient id="linear-gradient-6" x1="0" y1="111.9" x2="481.33" y2="111.9" xlink:href="#linear-gradient"/>
        <linearGradient id="linear-gradient-7" x1="474.18" y1="802.32" x2="474.18" y2="481.84"
                        xlink:href="#linear-gradient"/>
        <linearGradient id="linear-gradient-8" x1="309.67" y1="802.29" x2="309.67" y2="481.84"
                        xlink:href="#linear-gradient-2"/>
        <linearGradient id="linear-gradient-9" x1="391.95" y1="124.84" x2="783.95" y2="124.84"
                        xlink:href="#linear-gradient"/>
        <linearGradient id="linear-gradient-10" x1="479.15" y1="671.44" x2="736.76" y2="671.44"
                        xlink:href="#linear-gradient-2"/>
        <linearGradient id="linear-gradient-11" x1="47.2" y1="671.41" x2="304.7" y2="671.41"
                        xlink:href="#linear-gradient-2"/>
    </defs>
    <path class="cls-1"
          d="M391.91,133C252.2,133,138.53,246.62,138.53,386.33A253.59,253.59,0,0,0,247.17,594.26a20.77,20.77,0,0,0,23.75-34.08,212.06,212.06,0,0,1-90.86-173.85c0-116.81,95-211.84,211.85-211.84s211.85,95,211.85,211.84A212,212,0,0,1,513,560.12a20.77,20.77,0,0,0,23.76,34.08A253.57,253.57,0,0,0,645.3,386.33C645.3,246.62,531.63,133,391.91,133Z"/>
    <path class="cls-2"
          d="M562.27,386.32a70.71,70.71,0,0,0-70.59-70.64,70.66,70.66,0,0,0-66.6,47.11,20.77,20.77,0,1,0,39.18,13.78,29.06,29.06,0,0,1,27.42-19.35,29.08,29.08,0,0,1,0,58.15H292.29a29.11,29.11,0,0,1-29.11-29.05,29,29,0,0,1,49.7-20.48,28.47,28.47,0,0,1,6.77,10.75,20.77,20.77,0,0,0,39.17-13.83,70.61,70.61,0,1,0-66.53,94.15H491.68a70.62,70.62,0,0,0,70.59-70.59Z"/>
    <path class="cls-3"
          d="M392,481.82a20.77,20.77,0,0,0-20.77,20.77V818.32a20.77,20.77,0,0,0,41.54,0V502.59A20.77,20.77,0,0,0,392,481.82Z"/>
    <path class="cls-4"
          d="M8,223.82,47.21,563.9A83.06,83.06,0,0,0,89.5,627.07l7.26,4L43.28,167.18A53.61,53.61,0,0,0,8,223.82Z"/>
    <path class="cls-5"
          d="M740.71,167.18h0L687.22,631.09l7.26-4a83.1,83.1,0,0,0,42.3-63.17L776,223.82A53.6,53.6,0,0,0,740.71,167.18Z"/>
    <path class="cls-6"
          d="M481.33,30.59a82.65,82.65,0,0,0-54.77-.11h-.05L392,42.82,43.26,167.18A53.56,53.56,0,0,0,8,223.81L3.12,181.48l-3-25.94a20.71,20.71,0,0,1,13.61-21.91l24.62-8.83L302.2,30.69l.48-.16,27.43-9.78L385,1.24a20.25,20.25,0,0,1,13.94,0l54.87,19.51Z"/>
    <path class="cls-7"
          d="M510.73,776.3l-31.58,17.49-10.69,5.9a20.76,20.76,0,0,1-30.84-18.13v-279a20.77,20.77,0,0,1,41.53,0V757.69A21.27,21.27,0,0,0,510.73,776.3Z"/>
    <path class="cls-8"
          d="M346.22,502.58V781.51a20.76,20.76,0,0,1-30.84,18.13l-10.68-5.9-31.58-17.5a21.26,21.26,0,0,0,31.58-18.61v-255a20.76,20.76,0,0,1,41.52,0Z"/>
    <path class="cls-9"
          d="M783.81,155.54l-3,25.94-4.9,42.33a48,48,0,0,0,.38-6.17,53.59,53.59,0,0,0-35.63-50.46L392,42.82l33.92-12.13a83.2,83.2,0,0,1,55.83,0L745.58,124.8l24.62,8.78A20.73,20.73,0,0,1,783.81,155.54Z"/>
    <path class="cls-10"
          d="M736.76,563.88l-4.89,42.48-4.63,40.15a20.55,20.55,0,0,1-10.53,15.68l-35.36,19.62L510.73,776.3a21.27,21.27,0,0,1-31.58-18.61V746.25L687.2,631.09l7.29-4A83.06,83.06,0,0,0,736.76,563.88Z"/>
    <path class="cls-11"
          d="M304.7,746.25v11.38a21.26,21.26,0,0,1-31.58,18.61L102.6,681.81,67.29,662.25a20.88,20.88,0,0,1-10.58-15.8l-4.62-40.09L47.2,563.88a83,83,0,0,0,42.32,63.17l7.23,4Z"/>
</svg>
