<svg xmlns="http://www.w3.org/2000/svg" xmlns:xlink="http://www.w3.org/1999/xlink" viewBox="0 0 504.44 600"><defs><style>.cls-1{fill:#3f51b5;}.cls-2{fill:#5c6bc0;}.cls-3{fill:none;}.cls-4{fill:#eee;}.cls-5,.cls-6{opacity:0.6;}.cls-5{fill:url(#linear-gradient);}.cls-6{fill:url(#linear-gradient-2);}.cls-7{fill:#676c72;}.cls-8{fill:#ea4335;}.cls-9{fill:#4285f4;}.cls-10{fill:#fbbc04;}.cls-11{fill:#0f9d58;}.cls-12{fill:#fff;}</style><linearGradient id="linear-gradient" x1="250.91" y1="339.81" x2="252.47" y2="322.08" gradientUnits="userSpaceOnUse"><stop offset="0.2" stop-opacity="0"/><stop offset="1" stop-opacity="0.4"/></linearGradient><linearGradient id="linear-gradient-2" x1="287.23" y1="510.73" x2="284.62" y2="492.1" gradientUnits="userSpaceOnUse"><stop offset="0.3" stop-opacity="0"/><stop offset="1" stop-opacity="0.4"/></linearGradient></defs><title>2019-GDE-Angular-Badge_1</title><g id="Warstwa_2" data-name="Warstwa 2"><g id="Warstwa_1-2" data-name="Warstwa 1"><g id="_2019-GDE-Angular-Badge" data-name="2019-GDE-Angular-Badge"><path class="cls-1" d="M504.44,353.05v91.48a23.31,23.31,0,0,1-11.64,20.18L263.88,596.88a23.35,23.35,0,0,1-23.32,0L11.64,464.71A23.31,23.31,0,0,1,0,444.53V296.79Z"/><path class="cls-2" d="M504.44,353.05v91.48a23.31,23.31,0,0,1-11.64,20.18l-21,12.13-373.32,38L11.64,464.71A23.31,23.31,0,0,1,0,444.53V296.79Z"/><path class="cls-3" d="M504.44,353.05v91.48a23.31,23.31,0,0,1-11.64,20.18l-21,12.13-207.91,120a23.35,23.35,0,0,1-23.32,0l-142.09-82L11.64,464.71A23.31,23.31,0,0,1,0,444.53V296.79Z"/><path class="cls-4" d="M504.44,155.47V353.05L0,296.79V155.47a23.31,23.31,0,0,1,11.64-20.18L240.56,3.12a23.35,23.35,0,0,1,23.32,0L492.8,135.29A23.31,23.31,0,0,1,504.44,155.47Z"/><polygon class="cls-5" points="0 296.79 0 318.27 504.44 353.05 0 296.79"/><polygon class="cls-6" points="98.48 514.85 130.31 533.22 471.8 476.83 98.48 514.85"/><g id="Logo"><path class="cls-7" d="M394.9,259.76H378.34v-2.87l8.12-8.84a20.3,20.3,0,0,0,2.74-3.57,5.74,5.74,0,0,0,.75-2.73,4.17,4.17,0,0,0-1-2.82,3.31,3.31,0,0,0-2.63-1.13,4.08,4.08,0,0,0-3.26,1.24,5,5,0,0,0-1.06,3.39h-4l0-.1a7.3,7.3,0,0,1,2.18-5.59,8.32,8.32,0,0,1,6.2-2.28,7.93,7.93,0,0,1,5.68,2,6.83,6.83,0,0,1,2.09,5.19,7.6,7.6,0,0,1-1.21,4.09,33.5,33.5,0,0,1-3.74,4.75l-5.55,5.84.05.1H394.9Z"/><path class="cls-7" d="M414.55,250.16c0,3.24-.74,5.71-2.2,7.41a7.44,7.44,0,0,1-6,2.55,7.51,7.51,0,0,1-6-2.55q-2.2-2.55-2.21-7.41v-5.71q0-4.84,2.19-7.42a8.24,8.24,0,0,1,12,0q2.21,2.58,2.21,7.42Zm-4.16-6.35a8,8,0,0,0-1-4.53,3.77,3.77,0,0,0-6,0,8,8,0,0,0-1,4.53v6.93a8,8,0,0,0,1,4.56,3.43,3.43,0,0,0,3,1.49,3.38,3.38,0,0,0,3-1.48,8.11,8.11,0,0,0,1-4.57Z"/><path class="cls-7" d="M428.64,259.76h-4.16v-21h-5.07v-3.07l9.23-.89Z"/><path class="cls-7" d="M445.11,256.79a4.47,4.47,0,0,0,3.59-1.65,7.37,7.37,0,0,0,1.37-4.81v-1.15a5.66,5.66,0,0,1-2,1.74,6,6,0,0,1-2.65.59,7.26,7.26,0,0,1-5.63-2.25,8.84,8.84,0,0,1-2.06-6.18,8.6,8.6,0,0,1,2.31-6.17,7.56,7.56,0,0,1,5.72-2.45A7.93,7.93,0,0,1,451.9,237c1.55,1.69,2.32,4.14,2.32,7.32v5.84q0,4.72-2.55,7.34a8.75,8.75,0,0,1-6.56,2.61,14.48,14.48,0,0,1-2.66-.25,11.41,11.41,0,0,1-2.52-.78l.55-3.2a9.37,9.37,0,0,0,2.14.69A13.3,13.3,0,0,0,445.11,256.79Zm.66-8.52a5.26,5.26,0,0,0,2.66-.62,4.12,4.12,0,0,0,1.64-1.59v-2.22a7.62,7.62,0,0,0-1.11-4.5,3.69,3.69,0,0,0-3.17-1.54,3.39,3.39,0,0,0-2.81,1.51,6.08,6.08,0,0,0-1.13,3.77,6.27,6.27,0,0,0,1,3.76A3.36,3.36,0,0,0,445.77,248.27Z"/><path class="cls-8" d="M80.22,187.39,104,173.65a11.7,11.7,0,1,0-11.7-20.27L51.2,177.11Z"/><path class="cls-9" d="M98.14,222.69A11.71,11.71,0,0,0,104,200.84L62.9,177.11a11.71,11.71,0,1,0-11.7,20.28l41.1,23.73A11.7,11.7,0,0,0,98.14,222.69Z"/><path class="cls-10" d="M139,222.69a11.7,11.7,0,0,0,5.84-1.57L186,197.39,157.32,186.9l-24.15,13.94A11.71,11.71,0,0,0,139,222.69Z"/><path class="cls-11" d="M180.11,199A11.71,11.71,0,0,0,186,177.11l-41.1-23.73a11.7,11.7,0,1,0-11.7,20.27l41.1,23.74A11.7,11.7,0,0,0,180.11,199Z"/><path class="cls-7" d="M227.48,161.47h29.88v5.84H233.54v17.11h21.51v5.77H233.54V207.3h23.82v5.85H227.48Z"/><path class="cls-7" d="M273.24,194.45l-12.77-18.11h6.93L276.92,190l9.17-13.64h7.15l-12.85,18.11,13.14,18.7h-7.15L276.78,199l-9.38,14.15h-7.15Z"/><path class="cls-7" d="M297.28,176.34h5.85v5.48h.28a13.29,13.29,0,0,1,5-4.73,15,15,0,0,1,7.54-1.91,16.5,16.5,0,0,1,8.95,2.53,17.54,17.54,0,0,1,6.36,7,23,23,0,0,1,0,20.1,17.62,17.62,0,0,1-6.36,7A16.5,16.5,0,0,1,316,214.3a15,15,0,0,1-7.54-1.91,13.53,13.53,0,0,1-5-4.66h-.28l.28,5.06v16h-6.13Zm24,30.67a12.43,12.43,0,0,0,4.51-4.94,16.65,16.65,0,0,0,0-14.66,12.5,12.5,0,0,0-4.51-4.94,11.23,11.23,0,0,0-12,0,12.24,12.24,0,0,0-4.47,4.91,17.15,17.15,0,0,0,0,14.72,12.18,12.18,0,0,0,4.47,4.91,11.23,11.23,0,0,0,12,0Z"/><path class="cls-7" d="M346.22,211.77a17.48,17.48,0,0,1-6.54-7,21.11,21.11,0,0,1-2.34-10,21.87,21.87,0,0,1,2.2-9.81,17.83,17.83,0,0,1,6.24-7.15,16.64,16.64,0,0,1,9.39-2.67,17.72,17.72,0,0,1,9.38,2.42,16.12,16.12,0,0,1,6.1,6.67,21.51,21.51,0,0,1,2.13,9.75,7,7,0,0,1-.22,1.88H343.47a14.62,14.62,0,0,0,2,7.07,11.81,11.81,0,0,0,4.59,4.33,12.46,12.46,0,0,0,5.81,1.44q7.07,0,10.9-6.64l5.19,2.53a18.46,18.46,0,0,1-6.46,7.07,19.43,19.43,0,0,1-19.3.07Zm20.06-20.93a12,12,0,0,0-1.3-4.62,9.78,9.78,0,0,0-3.64-3.89,11.39,11.39,0,0,0-6.25-1.59,10.37,10.37,0,0,0-7.32,2.78,13.36,13.36,0,0,0-3.94,7.32Z"/><path class="cls-7" d="M378.48,176.91h5.85v5.85h.28a10,10,0,0,1,4.41-5,13.19,13.19,0,0,1,6.78-1.81,13.41,13.41,0,0,1,2.67.22v6.28a15.24,15.24,0,0,0-3.32-.29,10,10,0,0,0-7.61,3.1,11.33,11.33,0,0,0-2.93,8.09v20.42h-6.13Zm37.35,36.66a9.44,9.44,0,0,1-3.21-2,9.12,9.12,0,0,1-2.17-3.23,12.34,12.34,0,0,1-.72-4.48v-22h-6.42v-5.55h6.42v-10.4h6.14v10.4h8.95v5.55h-8.95V202.4A7.42,7.42,0,0,0,417,207a4.92,4.92,0,0,0,4,1.62,7.43,7.43,0,0,0,4-1.23v6a9,9,0,0,1-2.2.72,14.84,14.84,0,0,1-2.85.22A11.5,11.5,0,0,1,415.83,213.57Z"/><path class="cls-7" d="M434.49,211.52a15.14,15.14,0,0,1-5.63-7.11l5.48-2.45a11.08,11.08,0,0,0,4.08,5.12,10.48,10.48,0,0,0,6,1.81,11.71,11.71,0,0,0,5.92-1.41,4.41,4.41,0,0,0,2.45-4,4.36,4.36,0,0,0-1.95-3.71,17.9,17.9,0,0,0-6.13-2.42l-4.48-1.16A16,16,0,0,1,433,192.5a9.29,9.29,0,0,1-.9-12.3,12.32,12.32,0,0,1,5.09-3.72,17.87,17.87,0,0,1,6.86-1.3,17.57,17.57,0,0,1,8.62,2.09,11.87,11.87,0,0,1,5.38,5.85l-5.34,2.45q-2.46-4.9-8.74-4.9a9.85,9.85,0,0,0-5.3,1.4,4.12,4.12,0,0,0-2.27,3.58,4,4,0,0,0,1.58,3.28,12.71,12.71,0,0,0,4.77,2.06l5.34,1.37a17.38,17.38,0,0,1,8.15,4.08A8.91,8.91,0,0,1,459,203a9.58,9.58,0,0,1-1.95,6,12.45,12.45,0,0,1-5.27,3.93,19.18,19.18,0,0,1-7.36,1.37A16.83,16.83,0,0,1,434.49,211.52Z"/></g><path class="cls-12" d="M233.18,466.77a12.34,12.34,0,0,1-4.6,3.63,18,18,0,0,1-8.22,1.63,14.32,14.32,0,0,1-10.45-4,13.92,13.92,0,0,1-4.1-10.39v-7.34a14.34,14.34,0,0,1,3.88-10.39,13.26,13.26,0,0,1,10-4q6.19,0,9.64,3.06a10.36,10.36,0,0,1,3.51,7.95l-.05.14h-5.55a6.76,6.76,0,0,0-2.06-4.66,7.55,7.55,0,0,0-5.42-1.78,7.2,7.2,0,0,0-5.87,2.73,10.54,10.54,0,0,0-2.24,6.92v7.37a10.15,10.15,0,0,0,2.43,7,8,8,0,0,0,6.28,2.73,13.18,13.18,0,0,0,4.47-.63,6.29,6.29,0,0,0,2.49-1.51v-7.13h-7v-4.39h12.84Z"/><path class="cls-12" d="M240.87,471.52V436.38h11.39a14.71,14.71,0,0,1,10.87,4.18,14.51,14.51,0,0,1,4.19,10.74v5.33a14.48,14.48,0,0,1-4.19,10.74,14.77,14.77,0,0,1-10.87,4.15Zm5.86-30.43v25.73h5.36A8.67,8.67,0,0,0,259,464a10.76,10.76,0,0,0,2.49-7.35v-5.38a10.71,10.71,0,0,0-2.49-7.31,8.7,8.7,0,0,0-6.87-2.84Z"/><path class="cls-12" d="M295.09,455.71H279.71v11.11h17.84v4.7h-23.7V436.38h23.53v4.71H279.71V451h15.38Z"/><path class="cls-12" d="M186.16,397.91h-14l-2.86,8.37h-6l13.17-35.85h5.67l13,35.85H189Zm-12.32-5h10.62l-5.2-15.32h-.15Z"/><path class="cls-12" d="M203.89,379.64l.34,3.84a9.55,9.55,0,0,1,3.29-3.19,8.8,8.8,0,0,1,4.47-1.14,8.4,8.4,0,0,1,6.49,2.52c1.55,1.68,2.33,4.31,2.33,7.87v16.74h-6V389.59c0-2-.41-3.43-1.24-4.27a5.06,5.06,0,0,0-3.78-1.27,6.34,6.34,0,0,0-3.13.77,6.49,6.49,0,0,0-2.26,2.13v19.33h-6V379.64Z"/><path class="cls-12" d="M226,393.33q0-6.34,2.79-10.27a8.94,8.94,0,0,1,7.73-3.91,8.43,8.43,0,0,1,4.2,1,8.83,8.83,0,0,1,3.06,2.94l.59-3.47h5v26.64c0,3.43-1.06,6.09-3.18,8s-5.12,2.81-9,2.81a17.62,17.62,0,0,1-4.2-.56,20.17,20.17,0,0,1-4.08-1.46l1.28-4.71a14.73,14.73,0,0,0,3.27,1.2,16,16,0,0,0,3.68.43,6.86,6.86,0,0,0,4.75-1.39,5.58,5.58,0,0,0,1.5-4.28v-2.73a8.28,8.28,0,0,1-3,2.43,8.94,8.94,0,0,1-3.93.82,9.18,9.18,0,0,1-7.68-3.57,14.81,14.81,0,0,1-2.79-9.38Zm6,.52a10.52,10.52,0,0,0,1.46,5.87,5.08,5.08,0,0,0,4.55,2.21,6,6,0,0,0,3.23-.81,5.86,5.86,0,0,0,2.13-2.3V387.15a6.29,6.29,0,0,0-2.15-2.28,5.83,5.83,0,0,0-3.16-.82,4.92,4.92,0,0,0-4.57,2.58,13.27,13.27,0,0,0-1.49,6.7Z"/><path class="cls-12" d="M272.2,402.39a9.16,9.16,0,0,1-3.18,3.27,9.43,9.43,0,0,1-11.13-1.59q-2.42-2.74-2.41-8.5V379.64h6v16c0,2.33.38,4,1.13,4.9a4.14,4.14,0,0,0,3.42,1.41,7.69,7.69,0,0,0,3.64-.78,5.72,5.72,0,0,0,2.3-2.25V379.64h6v26.64h-5.22Z"/><path class="cls-12" d="M290.55,406.28h-6V367.87h6Z"/><path class="cls-12" d="M313.28,406.28a20,20,0,0,1-.53-2,14.14,14.14,0,0,1-.29-1.92,10.53,10.53,0,0,1-3.23,3.14,8.22,8.22,0,0,1-4.5,1.27,8.86,8.86,0,0,1-6.39-2.14,7.77,7.77,0,0,1-2.23-5.89,7,7,0,0,1,3.06-6c2-1.43,4.9-2.15,8.59-2.15h4.65v-2.34a4.34,4.34,0,0,0-1.23-3.28,4.86,4.86,0,0,0-3.52-1.18,5,5,0,0,0-3.25,1,3.13,3.13,0,0,0-1.21,2.53h-5.76l0-.15a6.58,6.58,0,0,1,2.82-5.59,12,12,0,0,1,7.79-2.43,11.37,11.37,0,0,1,7.51,2.36,8.31,8.31,0,0,1,2.86,6.8v11.84a21.61,21.61,0,0,0,.22,3.17,17.49,17.49,0,0,0,.71,3ZM305.94,402a7.53,7.53,0,0,0,4.07-1.13,5.69,5.69,0,0,0,2.4-2.59v-3.94h-4.75a6,6,0,0,0-4.09,1.29,3.94,3.94,0,0,0-1.47,3,3.12,3.12,0,0,0,1,2.43A4.13,4.13,0,0,0,305.94,402Z"/><path class="cls-12" d="M338,385l-2.56-.1a5.39,5.39,0,0,0-2.92.74,4.85,4.85,0,0,0-1.81,2.1v18.51h-6V379.64h5.47l.39,3.86a8.59,8.59,0,0,1,2.6-3.2,6.05,6.05,0,0,1,3.65-1.15,6.36,6.36,0,0,1,1,.08,8.56,8.56,0,0,1,.87.21Z"/></g></g></g></svg>